<svg xmlns="http://www.w3.org/2000/svg" viewBox="0 0 1440 600" fill="none">
  <defs>
    <linearGradient id="bg" x1="0" y1="0" x2="1" y2="1">
      <stop offset="0%" stop-color="#0f3d22"/>
      <stop offset="100%" stop-color="#1a5632"/>
    </linearGradient>
    <pattern id="dots" x="0" y="0" width="30" height="30" patternUnits="userSpaceOnUse">
      <circle cx="15" cy="15" r="1" fill="rgba(212,175,55,0.15)"/>
    </pattern>
    <pattern id="grid" x="0" y="0" width="60" height="60" patternUnits="userSpaceOnUse">
      <path d="M 60 0 L 0 0 0 60" fill="none" stroke="rgba(255,255,255,0.03)" stroke-width="1"/>
    </pattern>
  </defs>
  <rect width="1440" height="600" fill="url(#bg)"/>
  <rect width="1440" height="600" fill="url(#grid)"/>
  <rect width="1440" height="600" fill="url(#dots)"/>
  <circle cx="200" cy="100" r="300" fill="rgba(45,138,86,0.2)"/>
  <circle cx="1200" cy="500" r="250" fill="rgba(212,175,55,0.08)"/>
  <circle cx="700" cy="300" r="400" fill="rgba(45,138,86,0.1)"/>
  <path d="M0 400 Q360 350 720 380 T1440 360 V600 H0 Z" fill="rgba(0,0,0,0.15)"/>
  <path d="M0 450 Q360 420 720 440 T1440 430 V600 H0 Z" fill="rgba(0,0,0,0.1)"/>
  <path d="M100 50 C120 30 140 70 160 50 C180 30 200 70 220 50" stroke="rgba(212,175,55,0.2)" stroke-width="2" fill="none"/>
  <path d="M1100 100 C1120 80 1140 120 1160 100 C1180 80 1200 120 1220 100" stroke="rgba(212,175,55,0.15)" stroke-width="2" fill="none"/>
  <g opacity="0.06">
    <path d="M50 200 L70 180 L90 200 L70 220 Z" fill="white"/>
    <path d="M1300 150 L1320 130 L1340 150 L1320 170 Z" fill="white"/>
    <path d="M600 80 L615 65 L630 80 L615 95 Z" fill="white"/>
    <circle cx="400" cy="520" r="8" fill="white"/>
    <circle cx="1000" cy="90" r="6" fill="white"/>
    <circle cx="150" cy="450" r="5" fill="white"/>
  </g>
</svg>